<mxfile host="app.diagrams.net" modified="2024-06-28T11:03:10.567Z" agent="Mozilla/5.0 (Windows NT 10.0; Win64; x64) AppleWebKit/537.36 (KHTML, like Gecko) Chrome/126.0.0.0 Safari/537.36" etag="YZK2NnubieZHZqxOlMHu" version="24.6.4" type="device">
  <diagram name="Page-1" id="TzSic9iGSuEnEc--D8_a">
    <mxGraphModel dx="2878" dy="2655" grid="1" gridSize="10" guides="1" tooltips="1" connect="1" arrows="1" fold="1" page="1" pageScale="1" pageWidth="827" pageHeight="1169" math="0" shadow="0">
      <root>
        <mxCell id="0" />
        <mxCell id="1" parent="0" />
        <mxCell id="7fRdkEZSf6pnXCqNwYZv-2" value="User" style="swimlane;fontStyle=1;align=center;verticalAlign=top;childLayout=stackLayout;horizontal=1;startSize=26;horizontalStack=0;resizeParent=1;resizeParentMax=0;resizeLast=0;collapsible=1;marginBottom=0;whiteSpace=wrap;html=1;" parent="1" vertex="1">
          <mxGeometry x="265" y="110" width="180" height="200" as="geometry">
            <mxRectangle x="70" y="110" width="100" height="30" as="alternateBounds" />
          </mxGeometry>
        </mxCell>
        <mxCell id="7fRdkEZSf6pnXCqNwYZv-3" value="&lt;div&gt;# username: String&lt;/div&gt;&lt;div&gt;- email: String&lt;/div&gt;&lt;div&gt;- password: String&lt;/div&gt;&lt;div&gt;# languagePreference: String&lt;/div&gt;&lt;div&gt;# isLoggedIn: Boolean&lt;/div&gt;" style="text;strokeColor=none;fillColor=none;align=left;verticalAlign=top;spacingLeft=4;spacingRight=4;overflow=hidden;rotatable=0;points=[[0,0.5],[1,0.5]];portConstraint=eastwest;whiteSpace=wrap;html=1;" parent="7fRdkEZSf6pnXCqNwYZv-2" vertex="1">
          <mxGeometry y="26" width="180" height="84" as="geometry" />
        </mxCell>
        <mxCell id="7fRdkEZSf6pnXCqNwYZv-4" value="" style="line;strokeWidth=1;fillColor=none;align=left;verticalAlign=middle;spacingTop=-1;spacingLeft=3;spacingRight=3;rotatable=0;labelPosition=right;points=[];portConstraint=eastwest;strokeColor=inherit;" parent="7fRdkEZSf6pnXCqNwYZv-2" vertex="1">
          <mxGeometry y="110" width="180" height="8" as="geometry" />
        </mxCell>
        <mxCell id="7fRdkEZSf6pnXCqNwYZv-5" value="&lt;div&gt;+ signUp()&amp;nbsp;&lt;/div&gt;&lt;div&gt;+ signIn()&amp;nbsp;&lt;/div&gt;&lt;div&gt;+ resetPassword()&lt;/div&gt;&lt;div&gt;# setLocationPermission()&amp;nbsp;&lt;/div&gt;&lt;div&gt;# setNotificationPermission()&amp;nbsp;&lt;/div&gt;" style="text;strokeColor=none;fillColor=none;align=left;verticalAlign=top;spacingLeft=4;spacingRight=4;overflow=hidden;rotatable=0;points=[[0,0.5],[1,0.5]];portConstraint=eastwest;whiteSpace=wrap;html=1;" parent="7fRdkEZSf6pnXCqNwYZv-2" vertex="1">
          <mxGeometry y="118" width="180" height="82" as="geometry" />
        </mxCell>
        <mxCell id="7fRdkEZSf6pnXCqNwYZv-6" value="Location" style="swimlane;fontStyle=1;align=center;verticalAlign=top;childLayout=stackLayout;horizontal=1;startSize=26;horizontalStack=0;resizeParent=1;resizeParentMax=0;resizeLast=0;collapsible=1;marginBottom=0;whiteSpace=wrap;html=1;" parent="1" vertex="1">
          <mxGeometry x="545" y="110" width="180" height="140" as="geometry">
            <mxRectangle x="70" y="110" width="100" height="30" as="alternateBounds" />
          </mxGeometry>
        </mxCell>
        <mxCell id="7fRdkEZSf6pnXCqNwYZv-7" value="&lt;div&gt;- latitude: Float&lt;/div&gt;&lt;div&gt;- longitude: Float&lt;/div&gt;&lt;div&gt;# address: String&lt;/div&gt;" style="text;strokeColor=none;fillColor=none;align=left;verticalAlign=top;spacingLeft=4;spacingRight=4;overflow=hidden;rotatable=0;points=[[0,0.5],[1,0.5]];portConstraint=eastwest;whiteSpace=wrap;html=1;" parent="7fRdkEZSf6pnXCqNwYZv-6" vertex="1">
          <mxGeometry y="26" width="180" height="64" as="geometry" />
        </mxCell>
        <mxCell id="7fRdkEZSf6pnXCqNwYZv-8" value="" style="line;strokeWidth=1;fillColor=none;align=left;verticalAlign=middle;spacingTop=-1;spacingLeft=3;spacingRight=3;rotatable=0;labelPosition=right;points=[];portConstraint=eastwest;strokeColor=inherit;" parent="7fRdkEZSf6pnXCqNwYZv-6" vertex="1">
          <mxGeometry y="90" width="180" height="8" as="geometry" />
        </mxCell>
        <mxCell id="7fRdkEZSf6pnXCqNwYZv-9" value="&lt;div&gt;+ fetchCurrentLocation()&amp;nbsp;&lt;/div&gt;&lt;div&gt;# updateLocation()&lt;/div&gt;" style="text;strokeColor=none;fillColor=none;align=left;verticalAlign=top;spacingLeft=4;spacingRight=4;overflow=hidden;rotatable=0;points=[[0,0.5],[1,0.5]];portConstraint=eastwest;whiteSpace=wrap;html=1;" parent="7fRdkEZSf6pnXCqNwYZv-6" vertex="1">
          <mxGeometry y="98" width="180" height="42" as="geometry" />
        </mxCell>
        <mxCell id="7fRdkEZSf6pnXCqNwYZv-10" value="Notification" style="swimlane;fontStyle=1;align=center;verticalAlign=top;childLayout=stackLayout;horizontal=1;startSize=26;horizontalStack=0;resizeParent=1;resizeParentMax=0;resizeLast=0;collapsible=1;marginBottom=0;whiteSpace=wrap;html=1;" parent="1" vertex="1">
          <mxGeometry x="835" y="110" width="180" height="180" as="geometry">
            <mxRectangle x="70" y="110" width="100" height="30" as="alternateBounds" />
          </mxGeometry>
        </mxCell>
        <mxCell id="7fRdkEZSf6pnXCqNwYZv-11" value="- notificationID: String&lt;br&gt;- content: String&lt;br&gt;# timeScheduled: DateTime&lt;br&gt;# isEnabled: Boolean" style="text;strokeColor=none;fillColor=none;align=left;verticalAlign=top;spacingLeft=4;spacingRight=4;overflow=hidden;rotatable=0;points=[[0,0.5],[1,0.5]];portConstraint=eastwest;whiteSpace=wrap;html=1;" parent="7fRdkEZSf6pnXCqNwYZv-10" vertex="1">
          <mxGeometry y="26" width="180" height="74" as="geometry" />
        </mxCell>
        <mxCell id="7fRdkEZSf6pnXCqNwYZv-12" value="" style="line;strokeWidth=1;fillColor=none;align=left;verticalAlign=middle;spacingTop=-1;spacingLeft=3;spacingRight=3;rotatable=0;labelPosition=right;points=[];portConstraint=eastwest;strokeColor=inherit;" parent="7fRdkEZSf6pnXCqNwYZv-10" vertex="1">
          <mxGeometry y="100" width="180" height="8" as="geometry" />
        </mxCell>
        <mxCell id="7fRdkEZSf6pnXCqNwYZv-13" value="&lt;div&gt;+ sendNotification()&lt;/div&gt;&lt;div&gt;# scheduleNotification()&amp;nbsp;&lt;/div&gt;&lt;div&gt;+ enableNotification()&lt;/div&gt;&lt;div&gt;+ disableNotification()&lt;/div&gt;" style="text;strokeColor=none;fillColor=none;align=left;verticalAlign=top;spacingLeft=4;spacingRight=4;overflow=hidden;rotatable=0;points=[[0,0.5],[1,0.5]];portConstraint=eastwest;whiteSpace=wrap;html=1;" parent="7fRdkEZSf6pnXCqNwYZv-10" vertex="1">
          <mxGeometry y="108" width="180" height="72" as="geometry" />
        </mxCell>
        <mxCell id="7fRdkEZSf6pnXCqNwYZv-14" value="Alert" style="swimlane;fontStyle=1;align=center;verticalAlign=top;childLayout=stackLayout;horizontal=1;startSize=26;horizontalStack=0;resizeParent=1;resizeParentMax=0;resizeLast=0;collapsible=1;marginBottom=0;whiteSpace=wrap;html=1;" parent="1" vertex="1">
          <mxGeometry x="635" y="390" width="180" height="190" as="geometry">
            <mxRectangle x="70" y="110" width="100" height="30" as="alternateBounds" />
          </mxGeometry>
        </mxCell>
        <mxCell id="7fRdkEZSf6pnXCqNwYZv-15" value="&lt;div&gt;- alertID: String&lt;/div&gt;&lt;div&gt;- type: String&lt;/div&gt;&lt;div&gt;# severity: String&lt;/div&gt;&lt;div&gt;- message: String&lt;/div&gt;&lt;div&gt;- location: Location&lt;/div&gt;&lt;div&gt;# disaster : Disaster&lt;/div&gt;&lt;div&gt;&lt;br&gt;&lt;/div&gt;" style="text;strokeColor=none;fillColor=none;align=left;verticalAlign=top;spacingLeft=4;spacingRight=4;overflow=hidden;rotatable=0;points=[[0,0.5],[1,0.5]];portConstraint=eastwest;whiteSpace=wrap;html=1;" parent="7fRdkEZSf6pnXCqNwYZv-14" vertex="1">
          <mxGeometry y="26" width="180" height="94" as="geometry" />
        </mxCell>
        <mxCell id="7fRdkEZSf6pnXCqNwYZv-16" value="" style="line;strokeWidth=1;fillColor=none;align=left;verticalAlign=middle;spacingTop=-1;spacingLeft=3;spacingRight=3;rotatable=0;labelPosition=right;points=[];portConstraint=eastwest;strokeColor=inherit;" parent="7fRdkEZSf6pnXCqNwYZv-14" vertex="1">
          <mxGeometry y="120" width="180" height="8" as="geometry" />
        </mxCell>
        <mxCell id="7fRdkEZSf6pnXCqNwYZv-17" value="&lt;div&gt;+ generateAlert()&lt;/div&gt;&lt;div&gt;+ sendAlert()&lt;/div&gt;&lt;div&gt;# displayAlert()&lt;/div&gt;" style="text;strokeColor=none;fillColor=none;align=left;verticalAlign=top;spacingLeft=4;spacingRight=4;overflow=hidden;rotatable=0;points=[[0,0.5],[1,0.5]];portConstraint=eastwest;whiteSpace=wrap;html=1;" parent="7fRdkEZSf6pnXCqNwYZv-14" vertex="1">
          <mxGeometry y="128" width="180" height="62" as="geometry" />
        </mxCell>
        <mxCell id="7fRdkEZSf6pnXCqNwYZv-18" value="Temperature" style="swimlane;fontStyle=1;align=center;verticalAlign=top;childLayout=stackLayout;horizontal=1;startSize=26;horizontalStack=0;resizeParent=1;resizeParentMax=0;resizeLast=0;collapsible=1;marginBottom=0;whiteSpace=wrap;html=1;" parent="1" vertex="1">
          <mxGeometry x="915" y="405" width="180" height="150" as="geometry">
            <mxRectangle x="70" y="110" width="100" height="30" as="alternateBounds" />
          </mxGeometry>
        </mxCell>
        <mxCell id="7fRdkEZSf6pnXCqNwYZv-19" value="&lt;div&gt;&lt;div&gt;- temperatureID: String&lt;/div&gt;&lt;div&gt;- value: Float&lt;/div&gt;&lt;div&gt;# timestamp: DateTime&lt;/div&gt;&lt;div&gt;- location: Location&lt;/div&gt;&lt;/div&gt;&lt;div&gt;&lt;br&gt;&lt;/div&gt;" style="text;strokeColor=none;fillColor=none;align=left;verticalAlign=top;spacingLeft=4;spacingRight=4;overflow=hidden;rotatable=0;points=[[0,0.5],[1,0.5]];portConstraint=eastwest;whiteSpace=wrap;html=1;" parent="7fRdkEZSf6pnXCqNwYZv-18" vertex="1">
          <mxGeometry y="26" width="180" height="74" as="geometry" />
        </mxCell>
        <mxCell id="7fRdkEZSf6pnXCqNwYZv-20" value="" style="line;strokeWidth=1;fillColor=none;align=left;verticalAlign=middle;spacingTop=-1;spacingLeft=3;spacingRight=3;rotatable=0;labelPosition=right;points=[];portConstraint=eastwest;strokeColor=inherit;" parent="7fRdkEZSf6pnXCqNwYZv-18" vertex="1">
          <mxGeometry y="100" width="180" height="8" as="geometry" />
        </mxCell>
        <mxCell id="7fRdkEZSf6pnXCqNwYZv-21" value="&lt;div&gt;+ fetchTemperature()&lt;/div&gt;&lt;div&gt;# updateTemperature()&lt;/div&gt;" style="text;strokeColor=none;fillColor=none;align=left;verticalAlign=top;spacingLeft=4;spacingRight=4;overflow=hidden;rotatable=0;points=[[0,0.5],[1,0.5]];portConstraint=eastwest;whiteSpace=wrap;html=1;" parent="7fRdkEZSf6pnXCqNwYZv-18" vertex="1">
          <mxGeometry y="108" width="180" height="42" as="geometry" />
        </mxCell>
        <mxCell id="7fRdkEZSf6pnXCqNwYZv-22" value="Report&lt;div&gt;&lt;br&gt;&lt;/div&gt;" style="swimlane;fontStyle=1;align=center;verticalAlign=top;childLayout=stackLayout;horizontal=1;startSize=26;horizontalStack=0;resizeParent=1;resizeParentMax=0;resizeLast=0;collapsible=1;marginBottom=0;whiteSpace=wrap;html=1;" parent="1" vertex="1">
          <mxGeometry x="265" y="400" width="180" height="160" as="geometry">
            <mxRectangle x="70" y="110" width="100" height="30" as="alternateBounds" />
          </mxGeometry>
        </mxCell>
        <mxCell id="7fRdkEZSf6pnXCqNwYZv-23" value="&lt;div&gt;&lt;div&gt;&lt;div&gt;- reportID: String&lt;/div&gt;&lt;div&gt;- description: String&lt;/div&gt;&lt;div&gt;# media: String&lt;/div&gt;&lt;div&gt;# timestamp: DateTime&lt;/div&gt;&lt;div&gt;# location: Location&lt;/div&gt;&lt;/div&gt;&lt;/div&gt;" style="text;strokeColor=none;fillColor=none;align=left;verticalAlign=top;spacingLeft=4;spacingRight=4;overflow=hidden;rotatable=0;points=[[0,0.5],[1,0.5]];portConstraint=eastwest;whiteSpace=wrap;html=1;" parent="7fRdkEZSf6pnXCqNwYZv-22" vertex="1">
          <mxGeometry y="26" width="180" height="84" as="geometry" />
        </mxCell>
        <mxCell id="7fRdkEZSf6pnXCqNwYZv-24" value="" style="line;strokeWidth=1;fillColor=none;align=left;verticalAlign=middle;spacingTop=-1;spacingLeft=3;spacingRight=3;rotatable=0;labelPosition=right;points=[];portConstraint=eastwest;strokeColor=inherit;" parent="7fRdkEZSf6pnXCqNwYZv-22" vertex="1">
          <mxGeometry y="110" width="180" height="8" as="geometry" />
        </mxCell>
        <mxCell id="7fRdkEZSf6pnXCqNwYZv-25" value="&lt;div&gt;+ submitReport()&lt;/div&gt;&lt;div&gt;+ viewReports()&lt;/div&gt;&lt;div&gt;&lt;br&gt;&lt;/div&gt;" style="text;strokeColor=none;fillColor=none;align=left;verticalAlign=top;spacingLeft=4;spacingRight=4;overflow=hidden;rotatable=0;points=[[0,0.5],[1,0.5]];portConstraint=eastwest;whiteSpace=wrap;html=1;" parent="7fRdkEZSf6pnXCqNwYZv-22" vertex="1">
          <mxGeometry y="118" width="180" height="42" as="geometry" />
        </mxCell>
        <mxCell id="7fRdkEZSf6pnXCqNwYZv-26" value="SafetyGuideline" style="swimlane;fontStyle=1;align=center;verticalAlign=top;childLayout=stackLayout;horizontal=1;startSize=26;horizontalStack=0;resizeParent=1;resizeParentMax=0;resizeLast=0;collapsible=1;marginBottom=0;whiteSpace=wrap;html=1;" parent="1" vertex="1">
          <mxGeometry x="1190" y="890" width="210" height="160" as="geometry">
            <mxRectangle x="70" y="110" width="100" height="30" as="alternateBounds" />
          </mxGeometry>
        </mxCell>
        <mxCell id="7fRdkEZSf6pnXCqNwYZv-27" value="&lt;div&gt;&lt;div&gt;- guidelineID: String&lt;/div&gt;&lt;div&gt;# disasterType: Disaster&lt;/div&gt;&lt;div&gt;# content: String&lt;/div&gt;&lt;div&gt;# evacuationRoutes: String&lt;/div&gt;&lt;div&gt;# emergencyContacts: List&amp;lt;Contact&amp;gt;&lt;/div&gt;&lt;/div&gt;" style="text;strokeColor=none;fillColor=none;align=left;verticalAlign=top;spacingLeft=4;spacingRight=4;overflow=hidden;rotatable=0;points=[[0,0.5],[1,0.5]];portConstraint=eastwest;whiteSpace=wrap;html=1;" parent="7fRdkEZSf6pnXCqNwYZv-26" vertex="1">
          <mxGeometry y="26" width="210" height="84" as="geometry" />
        </mxCell>
        <mxCell id="7fRdkEZSf6pnXCqNwYZv-28" value="" style="line;strokeWidth=1;fillColor=none;align=left;verticalAlign=middle;spacingTop=-1;spacingLeft=3;spacingRight=3;rotatable=0;labelPosition=right;points=[];portConstraint=eastwest;strokeColor=inherit;" parent="7fRdkEZSf6pnXCqNwYZv-26" vertex="1">
          <mxGeometry y="110" width="210" height="8" as="geometry" />
        </mxCell>
        <mxCell id="7fRdkEZSf6pnXCqNwYZv-29" value="&lt;div&gt;+ viewGuideline()&lt;/div&gt;&lt;div&gt;# updateGuideline()&lt;/div&gt;" style="text;strokeColor=none;fillColor=none;align=left;verticalAlign=top;spacingLeft=4;spacingRight=4;overflow=hidden;rotatable=0;points=[[0,0.5],[1,0.5]];portConstraint=eastwest;whiteSpace=wrap;html=1;" parent="7fRdkEZSf6pnXCqNwYZv-26" vertex="1">
          <mxGeometry y="118" width="210" height="42" as="geometry" />
        </mxCell>
        <mxCell id="7fRdkEZSf6pnXCqNwYZv-30" value="Contact" style="swimlane;fontStyle=1;align=center;verticalAlign=top;childLayout=stackLayout;horizontal=1;startSize=26;horizontalStack=0;resizeParent=1;resizeParentMax=0;resizeLast=0;collapsible=1;marginBottom=0;whiteSpace=wrap;html=1;" parent="1" vertex="1">
          <mxGeometry x="1130" y="110" width="180" height="150" as="geometry">
            <mxRectangle x="70" y="110" width="100" height="30" as="alternateBounds" />
          </mxGeometry>
        </mxCell>
        <mxCell id="7fRdkEZSf6pnXCqNwYZv-31" value="&lt;div&gt;&lt;div&gt;&lt;div&gt;- contactID: String&lt;/div&gt;&lt;div&gt;# name: String&lt;/div&gt;&lt;div&gt;# phoneNumber: String&lt;/div&gt;&lt;div&gt;# relationship: String&lt;/div&gt;&lt;/div&gt;&lt;/div&gt;" style="text;strokeColor=none;fillColor=none;align=left;verticalAlign=top;spacingLeft=4;spacingRight=4;overflow=hidden;rotatable=0;points=[[0,0.5],[1,0.5]];portConstraint=eastwest;whiteSpace=wrap;html=1;" parent="7fRdkEZSf6pnXCqNwYZv-30" vertex="1">
          <mxGeometry y="26" width="180" height="64" as="geometry" />
        </mxCell>
        <mxCell id="7fRdkEZSf6pnXCqNwYZv-32" value="" style="line;strokeWidth=1;fillColor=none;align=left;verticalAlign=middle;spacingTop=-1;spacingLeft=3;spacingRight=3;rotatable=0;labelPosition=right;points=[];portConstraint=eastwest;strokeColor=inherit;" parent="7fRdkEZSf6pnXCqNwYZv-30" vertex="1">
          <mxGeometry y="90" width="180" height="8" as="geometry" />
        </mxCell>
        <mxCell id="7fRdkEZSf6pnXCqNwYZv-33" value="&lt;div&gt;+ addContact()&lt;/div&gt;&lt;div&gt;+ updateContact()&lt;/div&gt;&lt;div&gt;+ notifyContact()&lt;/div&gt;" style="text;strokeColor=none;fillColor=none;align=left;verticalAlign=top;spacingLeft=4;spacingRight=4;overflow=hidden;rotatable=0;points=[[0,0.5],[1,0.5]];portConstraint=eastwest;whiteSpace=wrap;html=1;" parent="7fRdkEZSf6pnXCqNwYZv-30" vertex="1">
          <mxGeometry y="98" width="180" height="52" as="geometry" />
        </mxCell>
        <mxCell id="7fRdkEZSf6pnXCqNwYZv-34" value="&lt;div&gt;CheckList&lt;/div&gt;" style="swimlane;fontStyle=1;align=center;verticalAlign=top;childLayout=stackLayout;horizontal=1;startSize=26;horizontalStack=0;resizeParent=1;resizeParentMax=0;resizeLast=0;collapsible=1;marginBottom=0;whiteSpace=wrap;html=1;" parent="1" vertex="1">
          <mxGeometry x="275" y="670" width="180" height="160" as="geometry">
            <mxRectangle x="70" y="110" width="100" height="30" as="alternateBounds" />
          </mxGeometry>
        </mxCell>
        <mxCell id="7fRdkEZSf6pnXCqNwYZv-35" value="&lt;div&gt;- checklistID: String&lt;/div&gt;&lt;div&gt;# tasks: List&amp;lt;String&amp;gt;&lt;/div&gt;&lt;div&gt;# disasterType: String&lt;/div&gt;&lt;div&gt;# status: Boolean&lt;/div&gt;&lt;div&gt;&lt;br&gt;&lt;/div&gt;" style="text;strokeColor=none;fillColor=none;align=left;verticalAlign=top;spacingLeft=4;spacingRight=4;overflow=hidden;rotatable=0;points=[[0,0.5],[1,0.5]];portConstraint=eastwest;whiteSpace=wrap;html=1;" parent="7fRdkEZSf6pnXCqNwYZv-34" vertex="1">
          <mxGeometry y="26" width="180" height="64" as="geometry" />
        </mxCell>
        <mxCell id="7fRdkEZSf6pnXCqNwYZv-36" value="" style="line;strokeWidth=1;fillColor=none;align=left;verticalAlign=middle;spacingTop=-1;spacingLeft=3;spacingRight=3;rotatable=0;labelPosition=right;points=[];portConstraint=eastwest;strokeColor=inherit;" parent="7fRdkEZSf6pnXCqNwYZv-34" vertex="1">
          <mxGeometry y="90" width="180" height="8" as="geometry" />
        </mxCell>
        <mxCell id="7fRdkEZSf6pnXCqNwYZv-37" value="&lt;div&gt;&lt;div&gt;+ createChecklist()&lt;/div&gt;&lt;div&gt;+ updateChecklist()&lt;/div&gt;&lt;div&gt;# markTaskComplete()&lt;/div&gt;&lt;/div&gt;&lt;div&gt;&lt;br&gt;&lt;/div&gt;" style="text;strokeColor=none;fillColor=none;align=left;verticalAlign=top;spacingLeft=4;spacingRight=4;overflow=hidden;rotatable=0;points=[[0,0.5],[1,0.5]];portConstraint=eastwest;whiteSpace=wrap;html=1;" parent="7fRdkEZSf6pnXCqNwYZv-34" vertex="1">
          <mxGeometry y="98" width="180" height="62" as="geometry" />
        </mxCell>
        <mxCell id="7fRdkEZSf6pnXCqNwYZv-38" value="EmergencyRescue" style="swimlane;fontStyle=1;align=center;verticalAlign=top;childLayout=stackLayout;horizontal=1;startSize=26;horizontalStack=0;resizeParent=1;resizeParentMax=0;resizeLast=0;collapsible=1;marginBottom=0;whiteSpace=wrap;html=1;" parent="1" vertex="1">
          <mxGeometry x="470" y="675" width="220" height="140" as="geometry">
            <mxRectangle x="70" y="110" width="100" height="30" as="alternateBounds" />
          </mxGeometry>
        </mxCell>
        <mxCell id="7fRdkEZSf6pnXCqNwYZv-39" value="&lt;div&gt;- user : User&lt;/div&gt;&lt;div&gt;# location: Location&lt;/div&gt;" style="text;strokeColor=none;fillColor=none;align=left;verticalAlign=top;spacingLeft=4;spacingRight=4;overflow=hidden;rotatable=0;points=[[0,0.5],[1,0.5]];portConstraint=eastwest;whiteSpace=wrap;html=1;" parent="7fRdkEZSf6pnXCqNwYZv-38" vertex="1">
          <mxGeometry y="26" width="220" height="44" as="geometry" />
        </mxCell>
        <mxCell id="7fRdkEZSf6pnXCqNwYZv-40" value="" style="line;strokeWidth=1;fillColor=none;align=left;verticalAlign=middle;spacingTop=-1;spacingLeft=3;spacingRight=3;rotatable=0;labelPosition=right;points=[];portConstraint=eastwest;strokeColor=inherit;" parent="7fRdkEZSf6pnXCqNwYZv-38" vertex="1">
          <mxGeometry y="70" width="220" height="8" as="geometry" />
        </mxCell>
        <mxCell id="7fRdkEZSf6pnXCqNwYZv-41" value="&lt;div&gt;&lt;span style=&quot;background-color: rgb(255, 255, 255); font-family: sans-serif; font-size: 14px; text-wrap: nowrap;&quot;&gt;+ requestRescue()&lt;/span&gt;&lt;span style=&quot;background-color: initial;&quot;&gt;&amp;nbsp;&lt;/span&gt;&lt;/div&gt;&lt;div&gt;&lt;span style=&quot;background-color: rgb(255, 255, 255); font-family: sans-serif; font-size: 14px; text-wrap: nowrap;&quot;&gt;+ submitEmergencyReport&lt;/span&gt;&lt;span style=&quot;background-color: initial;&quot;&gt;()&lt;/span&gt;&lt;br&gt;&lt;/div&gt;&lt;div&gt;+&amp;nbsp;&lt;span style=&quot;background-color: rgb(255, 255, 255); font-family: sans-serif; font-size: 14px; text-wrap: nowrap;&quot;&gt;receiveEmergencyNotification()&lt;/span&gt;&lt;/div&gt;" style="text;strokeColor=none;fillColor=none;align=left;verticalAlign=top;spacingLeft=4;spacingRight=4;overflow=hidden;rotatable=0;points=[[0,0.5],[1,0.5]];portConstraint=eastwest;whiteSpace=wrap;html=1;" parent="7fRdkEZSf6pnXCqNwYZv-38" vertex="1">
          <mxGeometry y="78" width="220" height="62" as="geometry" />
        </mxCell>
        <mxCell id="7fRdkEZSf6pnXCqNwYZv-42" value="EducationalResource" style="swimlane;fontStyle=1;align=center;verticalAlign=top;childLayout=stackLayout;horizontal=1;startSize=26;horizontalStack=0;resizeParent=1;resizeParentMax=0;resizeLast=0;collapsible=1;marginBottom=0;whiteSpace=wrap;html=1;" parent="1" vertex="1">
          <mxGeometry x="915" y="890" width="180" height="140" as="geometry">
            <mxRectangle x="70" y="110" width="100" height="30" as="alternateBounds" />
          </mxGeometry>
        </mxCell>
        <mxCell id="7fRdkEZSf6pnXCqNwYZv-43" value="&lt;div&gt;- resourceID: String&lt;/div&gt;&lt;div&gt;- title: String&lt;/div&gt;&lt;div&gt;# content: String&lt;/div&gt;&lt;div&gt;# mediaType: String&lt;/div&gt;" style="text;strokeColor=none;fillColor=none;align=left;verticalAlign=top;spacingLeft=4;spacingRight=4;overflow=hidden;rotatable=0;points=[[0,0.5],[1,0.5]];portConstraint=eastwest;whiteSpace=wrap;html=1;" parent="7fRdkEZSf6pnXCqNwYZv-42" vertex="1">
          <mxGeometry y="26" width="180" height="64" as="geometry" />
        </mxCell>
        <mxCell id="7fRdkEZSf6pnXCqNwYZv-44" value="" style="line;strokeWidth=1;fillColor=none;align=left;verticalAlign=middle;spacingTop=-1;spacingLeft=3;spacingRight=3;rotatable=0;labelPosition=right;points=[];portConstraint=eastwest;strokeColor=inherit;" parent="7fRdkEZSf6pnXCqNwYZv-42" vertex="1">
          <mxGeometry y="90" width="180" height="8" as="geometry" />
        </mxCell>
        <mxCell id="7fRdkEZSf6pnXCqNwYZv-45" value="&lt;div&gt;+ viewResource()&lt;/div&gt;&lt;div&gt;# updateResource()&lt;/div&gt;&lt;div&gt;&lt;br&gt;&lt;/div&gt;" style="text;strokeColor=none;fillColor=none;align=left;verticalAlign=top;spacingLeft=4;spacingRight=4;overflow=hidden;rotatable=0;points=[[0,0.5],[1,0.5]];portConstraint=eastwest;whiteSpace=wrap;html=1;" parent="7fRdkEZSf6pnXCqNwYZv-42" vertex="1">
          <mxGeometry y="98" width="180" height="42" as="geometry" />
        </mxCell>
        <mxCell id="7fRdkEZSf6pnXCqNwYZv-46" value="&lt;div&gt;BackupService&lt;/div&gt;" style="swimlane;fontStyle=1;align=center;verticalAlign=top;childLayout=stackLayout;horizontal=1;startSize=26;horizontalStack=0;resizeParent=1;resizeParentMax=0;resizeLast=0;collapsible=1;marginBottom=0;whiteSpace=wrap;html=1;" parent="1" vertex="1">
          <mxGeometry x="1205" y="670" width="180" height="150" as="geometry">
            <mxRectangle x="70" y="110" width="100" height="30" as="alternateBounds" />
          </mxGeometry>
        </mxCell>
        <mxCell id="7fRdkEZSf6pnXCqNwYZv-47" value="&lt;div&gt;&lt;div&gt;- backupID: String&lt;/div&gt;&lt;div&gt;# dataType: String&lt;/div&gt;&lt;div&gt;# timestamp: DateTime&lt;/div&gt;&lt;/div&gt;" style="text;strokeColor=none;fillColor=none;align=left;verticalAlign=top;spacingLeft=4;spacingRight=4;overflow=hidden;rotatable=0;points=[[0,0.5],[1,0.5]];portConstraint=eastwest;whiteSpace=wrap;html=1;" parent="7fRdkEZSf6pnXCqNwYZv-46" vertex="1">
          <mxGeometry y="26" width="180" height="54" as="geometry" />
        </mxCell>
        <mxCell id="7fRdkEZSf6pnXCqNwYZv-48" value="" style="line;strokeWidth=1;fillColor=none;align=left;verticalAlign=middle;spacingTop=-1;spacingLeft=3;spacingRight=3;rotatable=0;labelPosition=right;points=[];portConstraint=eastwest;strokeColor=inherit;" parent="7fRdkEZSf6pnXCqNwYZv-46" vertex="1">
          <mxGeometry y="80" width="180" height="8" as="geometry" />
        </mxCell>
        <mxCell id="7fRdkEZSf6pnXCqNwYZv-49" value="&lt;div&gt;&lt;div&gt;&lt;div&gt;+ createBackup()&lt;/div&gt;&lt;div&gt;+ restoreBackup()&lt;/div&gt;&lt;div&gt;# syncData()&lt;/div&gt;&lt;/div&gt;&lt;/div&gt;" style="text;strokeColor=none;fillColor=none;align=left;verticalAlign=top;spacingLeft=4;spacingRight=4;overflow=hidden;rotatable=0;points=[[0,0.5],[1,0.5]];portConstraint=eastwest;whiteSpace=wrap;html=1;" parent="7fRdkEZSf6pnXCqNwYZv-46" vertex="1">
          <mxGeometry y="88" width="180" height="62" as="geometry" />
        </mxCell>
        <mxCell id="7fRdkEZSf6pnXCqNwYZv-50" value="&lt;div&gt;Volunteer&lt;/div&gt;" style="swimlane;fontStyle=1;align=center;verticalAlign=top;childLayout=stackLayout;horizontal=1;startSize=26;horizontalStack=0;resizeParent=1;resizeParentMax=0;resizeLast=0;collapsible=1;marginBottom=0;whiteSpace=wrap;html=1;" parent="1" vertex="1">
          <mxGeometry x="925" y="670" width="180" height="170" as="geometry">
            <mxRectangle x="70" y="110" width="100" height="30" as="alternateBounds" />
          </mxGeometry>
        </mxCell>
        <mxCell id="7fRdkEZSf6pnXCqNwYZv-51" value="&lt;div&gt;- volunteerID: String&lt;/div&gt;&lt;div&gt;# name: String&lt;/div&gt;&lt;div&gt;# role: String&lt;/div&gt;&lt;div&gt;# availability: String&lt;/div&gt;" style="text;strokeColor=none;fillColor=none;align=left;verticalAlign=top;spacingLeft=4;spacingRight=4;overflow=hidden;rotatable=0;points=[[0,0.5],[1,0.5]];portConstraint=eastwest;whiteSpace=wrap;html=1;" parent="7fRdkEZSf6pnXCqNwYZv-50" vertex="1">
          <mxGeometry y="26" width="180" height="74" as="geometry" />
        </mxCell>
        <mxCell id="7fRdkEZSf6pnXCqNwYZv-52" value="" style="line;strokeWidth=1;fillColor=none;align=left;verticalAlign=middle;spacingTop=-1;spacingLeft=3;spacingRight=3;rotatable=0;labelPosition=right;points=[];portConstraint=eastwest;strokeColor=inherit;" parent="7fRdkEZSf6pnXCqNwYZv-50" vertex="1">
          <mxGeometry y="100" width="180" height="8" as="geometry" />
        </mxCell>
        <mxCell id="7fRdkEZSf6pnXCqNwYZv-53" value="&lt;div&gt;+ signUpVolunteer()&lt;/div&gt;&lt;div&gt;+ viewOpportunities()&lt;/div&gt;&lt;div&gt;+ coordinateEfforts()&lt;/div&gt;" style="text;strokeColor=none;fillColor=none;align=left;verticalAlign=top;spacingLeft=4;spacingRight=4;overflow=hidden;rotatable=0;points=[[0,0.5],[1,0.5]];portConstraint=eastwest;whiteSpace=wrap;html=1;" parent="7fRdkEZSf6pnXCqNwYZv-50" vertex="1">
          <mxGeometry y="108" width="180" height="62" as="geometry" />
        </mxCell>
        <mxCell id="7fRdkEZSf6pnXCqNwYZv-61" value="" style="endArrow=none;html=1;edgeStyle=orthogonalEdgeStyle;rounded=0;entryX=1.018;entryY=0.536;entryDx=0;entryDy=0;entryPerimeter=0;curved=0;" parent="1" target="O44NoMmETUuOMZ_5m_BU-60" edge="1">
          <mxGeometry relative="1" as="geometry">
            <mxPoint x="450" y="180" as="sourcePoint" />
            <mxPoint x="543.5300000000001" y="178.60000000000002" as="targetPoint" />
            <Array as="points">
              <mxPoint x="445" y="180" />
            </Array>
          </mxGeometry>
        </mxCell>
        <mxCell id="7fRdkEZSf6pnXCqNwYZv-67" value="" style="endArrow=none;html=1;edgeStyle=orthogonalEdgeStyle;rounded=1;exitX=0.582;exitY=-0.001;exitDx=0;exitDy=0;entryX=0.5;entryY=0;entryDx=0;entryDy=0;curved=0;exitPerimeter=0;" parent="1" source="7fRdkEZSf6pnXCqNwYZv-2" target="7fRdkEZSf6pnXCqNwYZv-10" edge="1">
          <mxGeometry relative="1" as="geometry">
            <mxPoint x="455" y="188" as="sourcePoint" />
            <mxPoint x="965" y="40" as="targetPoint" />
            <Array as="points">
              <mxPoint x="370" y="70" />
              <mxPoint x="925" y="70" />
            </Array>
          </mxGeometry>
        </mxCell>
        <mxCell id="7fRdkEZSf6pnXCqNwYZv-70" value="&lt;div&gt;0..*&lt;/div&gt;" style="text;html=1;align=center;verticalAlign=middle;resizable=0;points=[];autosize=1;strokeColor=none;fillColor=none;" parent="1" vertex="1">
          <mxGeometry x="885" y="80" width="40" height="30" as="geometry" />
        </mxCell>
        <mxCell id="7fRdkEZSf6pnXCqNwYZv-71" value="" style="endArrow=none;html=1;edgeStyle=orthogonalEdgeStyle;rounded=0;entryX=0.445;entryY=0.006;entryDx=0;entryDy=0;entryPerimeter=0;exitX=0.445;exitY=1;exitDx=0;exitDy=0;exitPerimeter=0;" parent="1" source="7fRdkEZSf6pnXCqNwYZv-5" target="7fRdkEZSf6pnXCqNwYZv-22" edge="1">
          <mxGeometry relative="1" as="geometry">
            <mxPoint x="345" y="311" as="sourcePoint" />
            <mxPoint x="345" y="397" as="targetPoint" />
            <Array as="points">
              <mxPoint x="345" y="360" />
              <mxPoint x="345" y="360" />
            </Array>
          </mxGeometry>
        </mxCell>
        <mxCell id="7fRdkEZSf6pnXCqNwYZv-73" value="&lt;div&gt;0..*&lt;/div&gt;" style="text;html=1;align=center;verticalAlign=middle;resizable=0;points=[];autosize=1;strokeColor=none;fillColor=none;" parent="1" vertex="1">
          <mxGeometry x="340" y="370" width="40" height="30" as="geometry" />
        </mxCell>
        <mxCell id="7fRdkEZSf6pnXCqNwYZv-74" value="" style="endArrow=none;html=1;edgeStyle=orthogonalEdgeStyle;rounded=1;entryX=0.694;entryY=0.001;entryDx=0;entryDy=0;entryPerimeter=0;curved=0;" parent="1" target="7fRdkEZSf6pnXCqNwYZv-30" edge="1" source="7fRdkEZSf6pnXCqNwYZv-2">
          <mxGeometry relative="1" as="geometry">
            <mxPoint x="355" y="80" as="sourcePoint" />
            <mxPoint x="1265" y="122" as="targetPoint" />
            <Array as="points">
              <mxPoint x="354" y="50" />
              <mxPoint x="1255" y="50" />
            </Array>
          </mxGeometry>
        </mxCell>
        <mxCell id="7fRdkEZSf6pnXCqNwYZv-77" value="&lt;div&gt;&lt;font style=&quot;font-size: 16px;&quot;&gt;0..*&lt;/font&gt;&lt;/div&gt;" style="text;html=1;align=center;verticalAlign=middle;resizable=0;points=[];autosize=1;strokeColor=none;fillColor=none;" parent="1" vertex="1">
          <mxGeometry x="1210" y="80" width="50" height="30" as="geometry" />
        </mxCell>
        <mxCell id="7fRdkEZSf6pnXCqNwYZv-78" value="" style="endArrow=none;html=1;edgeStyle=orthogonalEdgeStyle;rounded=1;exitX=0;exitY=0.5;exitDx=0;exitDy=0;strokeColor=default;curved=0;" parent="1" source="7fRdkEZSf6pnXCqNwYZv-3" edge="1">
          <mxGeometry relative="1" as="geometry">
            <mxPoint x="145" y="464" as="sourcePoint" />
            <mxPoint x="275" y="730" as="targetPoint" />
            <Array as="points">
              <mxPoint x="200" y="178" />
              <mxPoint x="200" y="730" />
            </Array>
          </mxGeometry>
        </mxCell>
        <mxCell id="7fRdkEZSf6pnXCqNwYZv-80" value="&lt;div&gt;&lt;font style=&quot;font-size: 16px;&quot;&gt;0..*&lt;/font&gt;&lt;/div&gt;" style="text;html=1;align=center;verticalAlign=middle;resizable=0;points=[];autosize=1;strokeColor=none;fillColor=none;" parent="1" vertex="1">
          <mxGeometry x="230" y="700" width="50" height="30" as="geometry" />
        </mxCell>
        <mxCell id="7fRdkEZSf6pnXCqNwYZv-84" value="" style="endArrow=none;html=1;edgeStyle=orthogonalEdgeStyle;rounded=1;exitX=0.008;exitY=0.276;exitDx=0;exitDy=0;exitPerimeter=0;curved=0;" parent="1" edge="1" source="7fRdkEZSf6pnXCqNwYZv-5">
          <mxGeometry relative="1" as="geometry">
            <mxPoint x="260" y="250" as="sourcePoint" />
            <mxPoint x="1010" y="670" as="targetPoint" />
            <Array as="points">
              <mxPoint x="255" y="251" />
              <mxPoint x="255" y="600" />
              <mxPoint x="1010" y="600" />
              <mxPoint x="1010" y="670" />
              <mxPoint x="1008" y="670" />
            </Array>
          </mxGeometry>
        </mxCell>
        <mxCell id="7fRdkEZSf6pnXCqNwYZv-85" value="&lt;div&gt;1&lt;/div&gt;" style="text;html=1;align=center;verticalAlign=middle;resizable=0;points=[];autosize=1;strokeColor=none;fillColor=none;" parent="1" vertex="1">
          <mxGeometry x="985" y="640" width="30" height="30" as="geometry" />
        </mxCell>
        <mxCell id="7fRdkEZSf6pnXCqNwYZv-86" value="" style="endArrow=none;html=1;edgeStyle=orthogonalEdgeStyle;rounded=1;entryX=0.5;entryY=0;entryDx=0;entryDy=0;curved=0;" parent="1" target="7fRdkEZSf6pnXCqNwYZv-46" edge="1">
          <mxGeometry relative="1" as="geometry">
            <mxPoint x="255" y="590" as="sourcePoint" />
            <mxPoint x="1325" y="590" as="targetPoint" />
            <Array as="points">
              <mxPoint x="1295" y="590" />
            </Array>
          </mxGeometry>
        </mxCell>
        <mxCell id="7fRdkEZSf6pnXCqNwYZv-87" value="&lt;div&gt;&lt;font style=&quot;font-size: 16px;&quot;&gt;0..*&lt;/font&gt;&lt;/div&gt;" style="text;html=1;align=center;verticalAlign=middle;resizable=0;points=[];autosize=1;strokeColor=none;fillColor=none;" parent="1" vertex="1">
          <mxGeometry x="1250" y="640" width="50" height="30" as="geometry" />
        </mxCell>
        <mxCell id="7fRdkEZSf6pnXCqNwYZv-88" value="" style="endArrow=none;html=1;edgeStyle=orthogonalEdgeStyle;rounded=1;exitX=0.5;exitY=0.98;exitDx=0;exitDy=0;exitPerimeter=0;entryX=0.553;entryY=0.002;entryDx=0;entryDy=0;curved=0;entryPerimeter=0;" parent="1" source="7fRdkEZSf6pnXCqNwYZv-9" target="7fRdkEZSf6pnXCqNwYZv-14" edge="1">
          <mxGeometry relative="1" as="geometry">
            <mxPoint x="625" y="280" as="sourcePoint" />
            <mxPoint x="732.99" y="389.1099999999999" as="targetPoint" />
            <Array as="points">
              <mxPoint x="635" y="340" />
              <mxPoint x="735" y="340" />
              <mxPoint x="735" y="389" />
              <mxPoint x="734" y="389" />
            </Array>
          </mxGeometry>
        </mxCell>
        <mxCell id="7fRdkEZSf6pnXCqNwYZv-91" value="" style="endArrow=none;html=1;edgeStyle=orthogonalEdgeStyle;rounded=1;exitX=0.718;exitY=1.014;exitDx=0;exitDy=0;exitPerimeter=0;entryX=0.333;entryY=-0.002;entryDx=0;entryDy=0;entryPerimeter=0;curved=0;" parent="1" source="7fRdkEZSf6pnXCqNwYZv-5" target="7fRdkEZSf6pnXCqNwYZv-14" edge="1">
          <mxGeometry relative="1" as="geometry">
            <mxPoint x="645" y="262" as="sourcePoint" />
            <mxPoint x="695" y="380" as="targetPoint" />
            <Array as="points">
              <mxPoint x="394" y="350" />
              <mxPoint x="695" y="350" />
            </Array>
          </mxGeometry>
        </mxCell>
        <mxCell id="7fRdkEZSf6pnXCqNwYZv-93" value="&lt;div&gt;*&lt;/div&gt;" style="text;html=1;align=center;verticalAlign=middle;resizable=0;points=[];autosize=1;strokeColor=none;fillColor=none;" parent="1" vertex="1">
          <mxGeometry x="395" y="315" width="30" height="30" as="geometry" />
        </mxCell>
        <mxCell id="7fRdkEZSf6pnXCqNwYZv-95" value="" style="endArrow=none;html=1;edgeStyle=orthogonalEdgeStyle;rounded=1;entryX=0.558;entryY=0.005;entryDx=0;entryDy=0;entryPerimeter=0;curved=0;" parent="1" target="7fRdkEZSf6pnXCqNwYZv-18" edge="1">
          <mxGeometry relative="1" as="geometry">
            <mxPoint x="675" y="250" as="sourcePoint" />
            <mxPoint x="965" y="390" as="targetPoint" />
            <Array as="points">
              <mxPoint x="675" y="250" />
              <mxPoint x="675" y="320" />
              <mxPoint x="965" y="320" />
            </Array>
          </mxGeometry>
        </mxCell>
        <mxCell id="7fRdkEZSf6pnXCqNwYZv-97" value="&lt;div&gt;&lt;font style=&quot;font-size: 18px;&quot;&gt;1..*&lt;/font&gt;&lt;/div&gt;" style="text;html=1;align=center;verticalAlign=middle;resizable=0;points=[];autosize=1;strokeColor=none;fillColor=none;" parent="1" vertex="1">
          <mxGeometry x="1020" y="365" width="50" height="40" as="geometry" />
        </mxCell>
        <mxCell id="7fRdkEZSf6pnXCqNwYZv-98" value="" style="endArrow=none;html=1;edgeStyle=orthogonalEdgeStyle;rounded=1;entryX=1.003;entryY=0.753;entryDx=0;entryDy=0;entryPerimeter=0;curved=0;" parent="1" target="7fRdkEZSf6pnXCqNwYZv-23" edge="1">
          <mxGeometry relative="1" as="geometry">
            <mxPoint x="600" y="250" as="sourcePoint" />
            <mxPoint x="505" y="390" as="targetPoint" />
            <Array as="points">
              <mxPoint x="599" y="250" />
              <mxPoint x="599" y="320" />
              <mxPoint x="495" y="320" />
              <mxPoint x="495" y="489" />
            </Array>
          </mxGeometry>
        </mxCell>
        <mxCell id="7fRdkEZSf6pnXCqNwYZv-101" value="Disaster" style="swimlane;fontStyle=1;align=center;verticalAlign=top;childLayout=stackLayout;horizontal=1;startSize=26;horizontalStack=0;resizeParent=1;resizeParentMax=0;resizeLast=0;collapsible=1;marginBottom=0;whiteSpace=wrap;html=1;" parent="1" vertex="1">
          <mxGeometry x="1195" y="345" width="180" height="230" as="geometry">
            <mxRectangle x="70" y="110" width="100" height="30" as="alternateBounds" />
          </mxGeometry>
        </mxCell>
        <mxCell id="7fRdkEZSf6pnXCqNwYZv-102" value="&lt;div&gt;- disasterID: String&amp;nbsp;&lt;/div&gt;&lt;div&gt;# type: String&amp;nbsp;&lt;/div&gt;&lt;div&gt;# severity: String&amp;nbsp;&lt;/div&gt;&lt;div&gt;# location: Location&lt;/div&gt;&lt;div&gt;# startTime: DateTime&amp;nbsp;&lt;/div&gt;&lt;div&gt;# endTime:&amp;nbsp; DateTime&amp;nbsp;&lt;/div&gt;&lt;div&gt;# description:&amp;nbsp; String&amp;nbsp;&lt;/div&gt;" style="text;strokeColor=none;fillColor=none;align=left;verticalAlign=top;spacingLeft=4;spacingRight=4;overflow=hidden;rotatable=0;points=[[0,0.5],[1,0.5]];portConstraint=eastwest;whiteSpace=wrap;html=1;" parent="7fRdkEZSf6pnXCqNwYZv-101" vertex="1">
          <mxGeometry y="26" width="180" height="114" as="geometry" />
        </mxCell>
        <mxCell id="7fRdkEZSf6pnXCqNwYZv-103" value="" style="line;strokeWidth=1;fillColor=none;align=left;verticalAlign=middle;spacingTop=-1;spacingLeft=3;spacingRight=3;rotatable=0;labelPosition=right;points=[];portConstraint=eastwest;strokeColor=inherit;" parent="7fRdkEZSf6pnXCqNwYZv-101" vertex="1">
          <mxGeometry y="140" width="180" height="8" as="geometry" />
        </mxCell>
        <mxCell id="7fRdkEZSf6pnXCqNwYZv-104" value="&lt;div&gt;+ getDisasterInfo()&lt;/div&gt;&lt;div&gt;# updateDisasterInfo()&lt;/div&gt;&lt;div&gt;+ fetchUpcomingDisasters()&amp;nbsp;&lt;/div&gt;&lt;div&gt;+ fetchOngoingDisasters()&lt;/div&gt;" style="text;strokeColor=none;fillColor=none;align=left;verticalAlign=top;spacingLeft=4;spacingRight=4;overflow=hidden;rotatable=0;points=[[0,0.5],[1,0.5]];portConstraint=eastwest;whiteSpace=wrap;html=1;" parent="7fRdkEZSf6pnXCqNwYZv-101" vertex="1">
          <mxGeometry y="148" width="180" height="82" as="geometry" />
        </mxCell>
        <mxCell id="7fRdkEZSf6pnXCqNwYZv-105" value="" style="endArrow=none;html=1;edgeStyle=orthogonalEdgeStyle;rounded=1;exitX=0.75;exitY=0;exitDx=0;exitDy=0;curved=0;" parent="1" source="7fRdkEZSf6pnXCqNwYZv-14" target="7fRdkEZSf6pnXCqNwYZv-101" edge="1">
          <mxGeometry relative="1" as="geometry">
            <mxPoint x="685" y="260" as="sourcePoint" />
            <mxPoint x="1515" y="350" as="targetPoint" />
            <Array as="points">
              <mxPoint x="770" y="330" />
              <mxPoint x="1285" y="330" />
            </Array>
          </mxGeometry>
        </mxCell>
        <mxCell id="7fRdkEZSf6pnXCqNwYZv-107" value="&lt;font style=&quot;font-size: 16px;&quot;&gt;1&lt;/font&gt;&lt;div style=&quot;font-size: 16px;&quot;&gt;&lt;br&gt;&lt;/div&gt;" style="text;html=1;align=center;verticalAlign=middle;resizable=0;points=[];autosize=1;strokeColor=none;fillColor=none;" parent="1" vertex="1">
          <mxGeometry x="775" y="360" width="30" height="50" as="geometry" />
        </mxCell>
        <mxCell id="7fRdkEZSf6pnXCqNwYZv-109" value="" style="endArrow=none;html=1;edgeStyle=orthogonalEdgeStyle;rounded=1;exitX=1;exitY=0.5;exitDx=0;exitDy=0;entryX=0.89;entryY=-0.002;entryDx=0;entryDy=0;entryPerimeter=0;curved=0;" parent="1" source="7fRdkEZSf6pnXCqNwYZv-26" target="7fRdkEZSf6pnXCqNwYZv-101" edge="1">
          <mxGeometry relative="1" as="geometry">
            <mxPoint x="1421.04" y="969.296" as="sourcePoint" />
            <mxPoint x="1356.0500000000002" y="339.5400000000001" as="targetPoint" />
            <Array as="points">
              <mxPoint x="1421" y="970" />
              <mxPoint x="1421" y="330" />
              <mxPoint x="1355" y="330" />
            </Array>
          </mxGeometry>
        </mxCell>
        <mxCell id="7fRdkEZSf6pnXCqNwYZv-110" value="1&lt;div&gt;&lt;br&gt;&lt;/div&gt;" style="text;html=1;align=center;verticalAlign=middle;resizable=0;points=[];autosize=1;strokeColor=none;fillColor=none;" parent="1" vertex="1">
          <mxGeometry x="1370" y="330" width="30" height="40" as="geometry" />
        </mxCell>
        <mxCell id="7fRdkEZSf6pnXCqNwYZv-111" value="1&lt;div&gt;&lt;br&gt;&lt;/div&gt;" style="text;html=1;align=center;verticalAlign=middle;resizable=0;points=[];autosize=1;strokeColor=none;fillColor=none;" parent="1" vertex="1">
          <mxGeometry x="1395" y="970" width="30" height="40" as="geometry" />
        </mxCell>
        <mxCell id="7fRdkEZSf6pnXCqNwYZv-112" value="" style="endArrow=none;html=1;edgeStyle=orthogonalEdgeStyle;rounded=1;exitX=0.824;exitY=0.01;exitDx=0;exitDy=0;exitPerimeter=0;curved=0;" parent="1" source="7fRdkEZSf6pnXCqNwYZv-42" edge="1">
          <mxGeometry relative="1" as="geometry">
            <mxPoint x="1065" y="870" as="sourcePoint" />
            <mxPoint x="1375" y="436" as="targetPoint" />
            <Array as="points">
              <mxPoint x="1063" y="870" />
              <mxPoint x="1405" y="870" />
              <mxPoint x="1405" y="436" />
            </Array>
          </mxGeometry>
        </mxCell>
        <mxCell id="7fRdkEZSf6pnXCqNwYZv-113" value="1&lt;div&gt;&lt;br&gt;&lt;/div&gt;" style="text;html=1;align=center;verticalAlign=middle;resizable=0;points=[];autosize=1;strokeColor=none;fillColor=none;" parent="1" vertex="1">
          <mxGeometry x="1065" y="865" width="30" height="40" as="geometry" />
        </mxCell>
        <mxCell id="7fRdkEZSf6pnXCqNwYZv-114" value="&lt;div&gt;&lt;font style=&quot;font-size: 16px;&quot;&gt;1..*&lt;/font&gt;&lt;/div&gt;" style="text;html=1;align=center;verticalAlign=middle;resizable=0;points=[];autosize=1;strokeColor=none;fillColor=none;" parent="1" vertex="1">
          <mxGeometry x="1360" y="445" width="50" height="30" as="geometry" />
        </mxCell>
        <mxCell id="O44NoMmETUuOMZ_5m_BU-1" value="&lt;span style=&quot;font-family: sans-serif; font-size: 14px; text-align: start; text-wrap: nowrap; background-color: rgb(255, 255, 255);&quot;&gt;AccessibilitySettings&lt;/span&gt;" style="swimlane;fontStyle=1;align=center;verticalAlign=top;childLayout=stackLayout;horizontal=1;startSize=26;horizontalStack=0;resizeParent=1;resizeParentMax=0;resizeLast=0;collapsible=1;marginBottom=0;whiteSpace=wrap;html=1;" vertex="1" parent="1">
          <mxGeometry x="280" y="860" width="180" height="160" as="geometry">
            <mxRectangle x="70" y="110" width="100" height="30" as="alternateBounds" />
          </mxGeometry>
        </mxCell>
        <mxCell id="O44NoMmETUuOMZ_5m_BU-2" value="&lt;div&gt;-&amp;nbsp;&lt;span style=&quot;font-family: sans-serif; font-size: 14px; text-wrap: nowrap; background-color: rgb(255, 255, 255);&quot;&gt;textToSpeech&lt;/span&gt;: Boolean&lt;/div&gt;&lt;div&gt;#&amp;nbsp;&lt;span style=&quot;font-family: sans-serif; font-size: 14px; text-wrap: nowrap; background-color: rgb(255, 255, 255);&quot;&gt;highContrast&lt;/span&gt;:&amp;nbsp;&lt;span style=&quot;background-color: initial;&quot;&gt;Boolean&lt;/span&gt;&lt;/div&gt;&lt;div&gt;#&amp;nbsp;&lt;span style=&quot;font-family: sans-serif; font-size: 14px; text-wrap: nowrap; background-color: rgb(255, 255, 255);&quot;&gt;fontSize&lt;/span&gt;: Int&lt;/div&gt;&lt;div&gt;&lt;br&gt;&lt;/div&gt;" style="text;strokeColor=none;fillColor=none;align=left;verticalAlign=top;spacingLeft=4;spacingRight=4;overflow=hidden;rotatable=0;points=[[0,0.5],[1,0.5]];portConstraint=eastwest;whiteSpace=wrap;html=1;" vertex="1" parent="O44NoMmETUuOMZ_5m_BU-1">
          <mxGeometry y="26" width="180" height="64" as="geometry" />
        </mxCell>
        <mxCell id="O44NoMmETUuOMZ_5m_BU-3" value="" style="line;strokeWidth=1;fillColor=none;align=left;verticalAlign=middle;spacingTop=-1;spacingLeft=3;spacingRight=3;rotatable=0;labelPosition=right;points=[];portConstraint=eastwest;strokeColor=inherit;" vertex="1" parent="O44NoMmETUuOMZ_5m_BU-1">
          <mxGeometry y="90" width="180" height="8" as="geometry" />
        </mxCell>
        <mxCell id="O44NoMmETUuOMZ_5m_BU-4" value="&lt;div&gt;&lt;div&gt;+&amp;nbsp;&lt;span style=&quot;background-color: rgb(255, 255, 255); font-family: sans-serif; font-size: 14px; text-wrap: nowrap;&quot;&gt;enableTextToSpeech()&lt;/span&gt;&lt;/div&gt;&lt;div&gt;+&amp;nbsp;&lt;span style=&quot;font-family: sans-serif; font-size: 14px; text-wrap: nowrap; background-color: rgb(255, 255, 255);&quot;&gt;setHighContrast&lt;/span&gt;()&lt;/div&gt;&lt;div&gt;+&amp;nbsp;&lt;span style=&quot;font-family: sans-serif; font-size: 14px; text-wrap: nowrap; background-color: rgb(255, 255, 255);&quot;&gt;setFontSize&lt;/span&gt;()&lt;/div&gt;&lt;/div&gt;&lt;div&gt;&lt;br&gt;&lt;/div&gt;" style="text;strokeColor=none;fillColor=none;align=left;verticalAlign=top;spacingLeft=4;spacingRight=4;overflow=hidden;rotatable=0;points=[[0,0.5],[1,0.5]];portConstraint=eastwest;whiteSpace=wrap;html=1;" vertex="1" parent="O44NoMmETUuOMZ_5m_BU-1">
          <mxGeometry y="98" width="180" height="62" as="geometry" />
        </mxCell>
        <mxCell id="O44NoMmETUuOMZ_5m_BU-12" value="" style="endArrow=none;html=1;edgeStyle=orthogonalEdgeStyle;rounded=1;strokeColor=default;curved=0;exitX=-0.01;exitY=0.059;exitDx=0;exitDy=0;exitPerimeter=0;" edge="1" parent="1" source="7fRdkEZSf6pnXCqNwYZv-3" target="O44NoMmETUuOMZ_5m_BU-2">
          <mxGeometry relative="1" as="geometry">
            <mxPoint x="220" y="140" as="sourcePoint" />
            <mxPoint x="230" y="940" as="targetPoint" />
            <Array as="points">
              <mxPoint x="170" y="141" />
              <mxPoint x="170" y="939" />
            </Array>
          </mxGeometry>
        </mxCell>
        <mxCell id="O44NoMmETUuOMZ_5m_BU-17" value="MapService" style="swimlane;fontStyle=1;align=center;verticalAlign=top;childLayout=stackLayout;horizontal=1;startSize=26;horizontalStack=0;resizeParent=1;resizeParentMax=0;resizeLast=0;collapsible=1;marginBottom=0;whiteSpace=wrap;html=1;" vertex="1" parent="1">
          <mxGeometry x="725" y="670" width="160" height="150" as="geometry">
            <mxRectangle x="70" y="110" width="100" height="30" as="alternateBounds" />
          </mxGeometry>
        </mxCell>
        <mxCell id="O44NoMmETUuOMZ_5m_BU-18" value="&lt;div&gt;- location: String&lt;/div&gt;&lt;div&gt;# weather: String&lt;/div&gt;&lt;div&gt;# disasterInfo: String&lt;/div&gt;&lt;div&gt;# location: Location&lt;/div&gt;" style="text;strokeColor=none;fillColor=none;align=left;verticalAlign=top;spacingLeft=4;spacingRight=4;overflow=hidden;rotatable=0;points=[[0,0.5],[1,0.5]];portConstraint=eastwest;whiteSpace=wrap;html=1;" vertex="1" parent="O44NoMmETUuOMZ_5m_BU-17">
          <mxGeometry y="26" width="160" height="74" as="geometry" />
        </mxCell>
        <mxCell id="O44NoMmETUuOMZ_5m_BU-19" value="" style="line;strokeWidth=1;fillColor=none;align=left;verticalAlign=middle;spacingTop=-1;spacingLeft=3;spacingRight=3;rotatable=0;labelPosition=right;points=[];portConstraint=eastwest;strokeColor=inherit;" vertex="1" parent="O44NoMmETUuOMZ_5m_BU-17">
          <mxGeometry y="100" width="160" height="8" as="geometry" />
        </mxCell>
        <mxCell id="O44NoMmETUuOMZ_5m_BU-20" value="&lt;div&gt;+ getRealTimeMap()&lt;/div&gt;&lt;div&gt;+ updateMapData()&lt;/div&gt;" style="text;strokeColor=none;fillColor=none;align=left;verticalAlign=top;spacingLeft=4;spacingRight=4;overflow=hidden;rotatable=0;points=[[0,0.5],[1,0.5]];portConstraint=eastwest;whiteSpace=wrap;html=1;" vertex="1" parent="O44NoMmETUuOMZ_5m_BU-17">
          <mxGeometry y="108" width="160" height="42" as="geometry" />
        </mxCell>
        <mxCell id="O44NoMmETUuOMZ_5m_BU-22" value="" style="endArrow=none;html=1;rounded=1;curved=0;" edge="1" parent="1">
          <mxGeometry width="50" height="50" relative="1" as="geometry">
            <mxPoint x="780" y="670" as="sourcePoint" />
            <mxPoint x="725" y="220" as="targetPoint" />
            <Array as="points">
              <mxPoint x="780" y="670" />
              <mxPoint x="780" y="650" />
              <mxPoint x="830" y="650" />
              <mxPoint x="830" y="530" />
              <mxPoint x="830" y="420" />
              <mxPoint x="830" y="220" />
              <mxPoint x="810" y="220" />
              <mxPoint x="780" y="220" />
            </Array>
          </mxGeometry>
        </mxCell>
        <mxCell id="O44NoMmETUuOMZ_5m_BU-24" value="&lt;div&gt;&lt;font style=&quot;font-size: 24px;&quot;&gt;*&lt;/font&gt;&lt;/div&gt;" style="text;html=1;align=center;verticalAlign=middle;resizable=0;points=[];autosize=1;strokeColor=none;fillColor=none;" vertex="1" parent="1">
          <mxGeometry x="755" y="635" width="30" height="40" as="geometry" />
        </mxCell>
        <mxCell id="O44NoMmETUuOMZ_5m_BU-25" value="" style="endArrow=none;html=1;rounded=1;entryX=0.468;entryY=1.005;entryDx=0;entryDy=0;entryPerimeter=0;curved=0;" edge="1" parent="1" target="7fRdkEZSf6pnXCqNwYZv-21">
          <mxGeometry width="50" height="50" relative="1" as="geometry">
            <mxPoint x="840" y="670" as="sourcePoint" />
            <mxPoint x="890" y="590" as="targetPoint" />
            <Array as="points">
              <mxPoint x="840" y="670" />
              <mxPoint x="840" y="640" />
              <mxPoint x="1000" y="640" />
            </Array>
          </mxGeometry>
        </mxCell>
        <mxCell id="O44NoMmETUuOMZ_5m_BU-26" value="&lt;font style=&quot;font-size: 16px;&quot;&gt;1&lt;/font&gt;&lt;div style=&quot;font-size: 16px;&quot;&gt;&lt;br&gt;&lt;/div&gt;" style="text;html=1;align=center;verticalAlign=middle;resizable=0;points=[];autosize=1;strokeColor=none;fillColor=none;" vertex="1" parent="1">
          <mxGeometry x="835" y="640" width="30" height="50" as="geometry" />
        </mxCell>
        <mxCell id="O44NoMmETUuOMZ_5m_BU-27" value="&lt;div&gt;&lt;font style=&quot;font-size: 24px;&quot;&gt;*&lt;/font&gt;&lt;/div&gt;" style="text;html=1;align=center;verticalAlign=middle;resizable=0;points=[];autosize=1;strokeColor=none;fillColor=none;" vertex="1" parent="1">
          <mxGeometry x="995" y="555" width="30" height="40" as="geometry" />
        </mxCell>
        <mxCell id="O44NoMmETUuOMZ_5m_BU-28" value="&lt;div&gt;&lt;font style=&quot;font-size: 24px;&quot;&gt;*&lt;/font&gt;&lt;/div&gt;" style="text;html=1;align=center;verticalAlign=middle;resizable=0;points=[];autosize=1;strokeColor=none;fillColor=none;" vertex="1" parent="1">
          <mxGeometry x="740" y="360" width="30" height="40" as="geometry" />
        </mxCell>
        <mxCell id="O44NoMmETUuOMZ_5m_BU-29" value="&lt;div&gt;&lt;font style=&quot;font-size: 24px;&quot;&gt;*&lt;/font&gt;&lt;/div&gt;" style="text;html=1;align=center;verticalAlign=middle;resizable=0;points=[];autosize=1;strokeColor=none;fillColor=none;" vertex="1" parent="1">
          <mxGeometry x="695" y="360" width="30" height="40" as="geometry" />
        </mxCell>
        <mxCell id="O44NoMmETUuOMZ_5m_BU-30" value="&lt;font style=&quot;font-size: 16px;&quot;&gt;1&lt;/font&gt;&lt;div style=&quot;font-size: 16px;&quot;&gt;&lt;br&gt;&lt;/div&gt;" style="text;html=1;align=center;verticalAlign=middle;resizable=0;points=[];autosize=1;strokeColor=none;fillColor=none;" vertex="1" parent="1">
          <mxGeometry x="1280" y="320" width="30" height="50" as="geometry" />
        </mxCell>
        <mxCell id="O44NoMmETUuOMZ_5m_BU-31" value="" style="endArrow=none;html=1;rounded=1;exitX=0.304;exitY=0.99;exitDx=0;exitDy=0;exitPerimeter=0;entryX=0.993;entryY=0.388;entryDx=0;entryDy=0;entryPerimeter=0;curved=0;" edge="1" parent="1" source="7fRdkEZSf6pnXCqNwYZv-13" target="7fRdkEZSf6pnXCqNwYZv-15">
          <mxGeometry width="50" height="50" relative="1" as="geometry">
            <mxPoint x="990" y="240" as="sourcePoint" />
            <mxPoint x="830" y="350" as="targetPoint" />
            <Array as="points">
              <mxPoint x="890" y="370" />
              <mxPoint x="890" y="452" />
            </Array>
          </mxGeometry>
        </mxCell>
        <mxCell id="O44NoMmETUuOMZ_5m_BU-32" value="&lt;font style=&quot;font-size: 16px;&quot;&gt;1&lt;/font&gt;&lt;div style=&quot;font-size: 16px;&quot;&gt;&lt;br&gt;&lt;/div&gt;" style="text;html=1;align=center;verticalAlign=middle;resizable=0;points=[];autosize=1;strokeColor=none;fillColor=none;" vertex="1" parent="1">
          <mxGeometry x="890" y="290" width="30" height="50" as="geometry" />
        </mxCell>
        <mxCell id="O44NoMmETUuOMZ_5m_BU-33" value="&lt;div&gt;&lt;font style=&quot;font-size: 24px;&quot;&gt;*&lt;/font&gt;&lt;/div&gt;" style="text;html=1;align=center;verticalAlign=middle;resizable=0;points=[];autosize=1;strokeColor=none;fillColor=none;" vertex="1" parent="1">
          <mxGeometry x="835" y="425" width="30" height="40" as="geometry" />
        </mxCell>
        <mxCell id="O44NoMmETUuOMZ_5m_BU-35" value="&lt;font style=&quot;font-size: 16px;&quot;&gt;1&lt;/font&gt;&lt;div style=&quot;font-size: 16px;&quot;&gt;&lt;br&gt;&lt;/div&gt;" style="text;html=1;align=center;verticalAlign=middle;resizable=0;points=[];autosize=1;strokeColor=none;fillColor=none;" vertex="1" parent="1">
          <mxGeometry x="545" y="825" width="30" height="50" as="geometry" />
        </mxCell>
        <mxCell id="O44NoMmETUuOMZ_5m_BU-36" value="&lt;div style=&quot;&quot;&gt;&lt;font style=&quot;font-size: 22px;&quot;&gt;*&lt;/font&gt;&lt;/div&gt;" style="text;html=1;align=center;verticalAlign=middle;resizable=0;points=[];autosize=1;strokeColor=none;fillColor=none;" vertex="1" parent="1">
          <mxGeometry x="970" y="835" width="30" height="40" as="geometry" />
        </mxCell>
        <mxCell id="O44NoMmETUuOMZ_5m_BU-37" value="" style="endArrow=none;html=1;rounded=1;exitX=1;exitY=0.5;exitDx=0;exitDy=0;entryX=0.27;entryY=-0.005;entryDx=0;entryDy=0;entryPerimeter=0;curved=0;" edge="1" parent="1" source="7fRdkEZSf6pnXCqNwYZv-25" target="7fRdkEZSf6pnXCqNwYZv-38">
          <mxGeometry width="50" height="50" relative="1" as="geometry">
            <mxPoint x="800" y="610" as="sourcePoint" />
            <mxPoint x="530" y="674" as="targetPoint" />
            <Array as="points">
              <mxPoint x="530" y="539" />
            </Array>
          </mxGeometry>
        </mxCell>
        <mxCell id="O44NoMmETUuOMZ_5m_BU-39" value="&lt;font style=&quot;font-size: 16px;&quot;&gt;1&lt;/font&gt;&lt;div style=&quot;font-size: 16px;&quot;&gt;&lt;br&gt;&lt;/div&gt;" style="text;html=1;align=center;verticalAlign=middle;resizable=0;points=[];autosize=1;strokeColor=none;fillColor=none;" vertex="1" parent="1">
          <mxGeometry x="530" y="640" width="30" height="50" as="geometry" />
        </mxCell>
        <mxCell id="O44NoMmETUuOMZ_5m_BU-40" value="&lt;div&gt;&lt;font style=&quot;font-size: 24px;&quot;&gt;*&lt;/font&gt;&lt;/div&gt;" style="text;html=1;align=center;verticalAlign=middle;resizable=0;points=[];autosize=1;strokeColor=none;fillColor=none;" vertex="1" parent="1">
          <mxGeometry x="445" y="515" width="30" height="40" as="geometry" />
        </mxCell>
        <mxCell id="O44NoMmETUuOMZ_5m_BU-41" value="&lt;div&gt;&lt;font style=&quot;font-size: 24px;&quot;&gt;*&lt;/font&gt;&lt;/div&gt;" style="text;html=1;align=center;verticalAlign=middle;resizable=0;points=[];autosize=1;strokeColor=none;fillColor=none;" vertex="1" parent="1">
          <mxGeometry x="445" y="460" width="30" height="40" as="geometry" />
        </mxCell>
        <mxCell id="O44NoMmETUuOMZ_5m_BU-42" value="" style="endArrow=none;html=1;rounded=1;exitX=0.463;exitY=0.006;exitDx=0;exitDy=0;exitPerimeter=0;curved=0;" edge="1" parent="1">
          <mxGeometry width="50" height="50" relative="1" as="geometry">
            <mxPoint x="576.8599999999999" y="675.0000000000001" as="sourcePoint" />
            <mxPoint x="750" y="669" as="targetPoint" />
            <Array as="points">
              <mxPoint x="577" y="620" />
              <mxPoint x="750" y="620" />
            </Array>
          </mxGeometry>
        </mxCell>
        <mxCell id="O44NoMmETUuOMZ_5m_BU-43" value="&lt;font style=&quot;font-size: 16px;&quot;&gt;1&lt;/font&gt;&lt;div style=&quot;font-size: 16px;&quot;&gt;&lt;br&gt;&lt;/div&gt;" style="text;html=1;align=center;verticalAlign=middle;resizable=0;points=[];autosize=1;strokeColor=none;fillColor=none;" vertex="1" parent="1">
          <mxGeometry x="580" y="640" width="30" height="50" as="geometry" />
        </mxCell>
        <mxCell id="O44NoMmETUuOMZ_5m_BU-44" value="&lt;div&gt;&lt;font style=&quot;font-size: 24px;&quot;&gt;*&lt;/font&gt;&lt;/div&gt;" style="text;html=1;align=center;verticalAlign=middle;resizable=0;points=[];autosize=1;strokeColor=none;fillColor=none;" vertex="1" parent="1">
          <mxGeometry x="725" y="640" width="30" height="40" as="geometry" />
        </mxCell>
        <mxCell id="O44NoMmETUuOMZ_5m_BU-45" value="" style="endArrow=none;html=1;rounded=1;entryX=0.011;entryY=0.791;entryDx=0;entryDy=0;entryPerimeter=0;exitX=0.995;exitY=0.388;exitDx=0;exitDy=0;exitPerimeter=0;curved=0;" edge="1" parent="1" source="7fRdkEZSf6pnXCqNwYZv-43" target="7fRdkEZSf6pnXCqNwYZv-47">
          <mxGeometry width="50" height="50" relative="1" as="geometry">
            <mxPoint x="1150" y="950" as="sourcePoint" />
            <mxPoint x="1210" y="740" as="targetPoint" />
            <Array as="points">
              <mxPoint x="1160" y="940" />
              <mxPoint x="1160" y="740" />
            </Array>
          </mxGeometry>
        </mxCell>
        <mxCell id="O44NoMmETUuOMZ_5m_BU-46" value="1&lt;div&gt;&lt;br&gt;&lt;/div&gt;" style="text;html=1;align=center;verticalAlign=middle;resizable=0;points=[];autosize=1;strokeColor=none;fillColor=none;" vertex="1" parent="1">
          <mxGeometry x="1175" y="710" width="30" height="40" as="geometry" />
        </mxCell>
        <mxCell id="O44NoMmETUuOMZ_5m_BU-47" value="&lt;div style=&quot;&quot;&gt;&lt;font style=&quot;font-size: 22px;&quot;&gt;*&lt;/font&gt;&lt;/div&gt;" style="text;html=1;align=center;verticalAlign=middle;resizable=0;points=[];autosize=1;strokeColor=none;fillColor=none;" vertex="1" parent="1">
          <mxGeometry x="1095" y="905" width="30" height="40" as="geometry" />
        </mxCell>
        <mxCell id="O44NoMmETUuOMZ_5m_BU-48" value="" style="endArrow=none;html=1;rounded=1;exitX=0.633;exitY=1.031;exitDx=0;exitDy=0;exitPerimeter=0;entryX=0.406;entryY=1.007;entryDx=0;entryDy=0;entryPerimeter=0;curved=0;" edge="1" parent="1" source="O44NoMmETUuOMZ_5m_BU-20" target="7fRdkEZSf6pnXCqNwYZv-29">
          <mxGeometry width="50" height="50" relative="1" as="geometry">
            <mxPoint x="890" y="620" as="sourcePoint" />
            <mxPoint x="1330" y="1090" as="targetPoint" />
            <Array as="points">
              <mxPoint x="826" y="1080" />
              <mxPoint x="1276" y="1080" />
            </Array>
          </mxGeometry>
        </mxCell>
        <mxCell id="O44NoMmETUuOMZ_5m_BU-50" value="&lt;div style=&quot;&quot;&gt;&lt;font style=&quot;font-size: 22px;&quot;&gt;*&lt;/font&gt;&lt;/div&gt;" style="text;html=1;align=center;verticalAlign=middle;resizable=0;points=[];autosize=1;strokeColor=none;fillColor=none;" vertex="1" parent="1">
          <mxGeometry x="1280" y="1050" width="30" height="40" as="geometry" />
        </mxCell>
        <mxCell id="O44NoMmETUuOMZ_5m_BU-51" value="" style="endArrow=none;html=1;rounded=1;exitX=1.007;exitY=0.929;exitDx=0;exitDy=0;exitPerimeter=0;entryX=0.128;entryY=0.006;entryDx=0;entryDy=0;entryPerimeter=0;curved=0;" edge="1" parent="1" source="7fRdkEZSf6pnXCqNwYZv-19" target="7fRdkEZSf6pnXCqNwYZv-26">
          <mxGeometry width="50" height="50" relative="1" as="geometry">
            <mxPoint x="1080" y="500" as="sourcePoint" />
            <mxPoint x="1130" y="450" as="targetPoint" />
            <Array as="points">
              <mxPoint x="1150" y="500" />
              <mxPoint x="1150" y="720" />
              <mxPoint x="1150" y="840" />
              <mxPoint x="1217" y="840" />
            </Array>
          </mxGeometry>
        </mxCell>
        <mxCell id="O44NoMmETUuOMZ_5m_BU-52" value="&lt;div&gt;1&lt;/div&gt;" style="text;html=1;align=center;verticalAlign=middle;resizable=0;points=[];autosize=1;strokeColor=none;fillColor=none;" vertex="1" parent="1">
          <mxGeometry x="1095" y="470" width="30" height="30" as="geometry" />
        </mxCell>
        <mxCell id="O44NoMmETUuOMZ_5m_BU-53" value="&lt;div style=&quot;&quot;&gt;&lt;font style=&quot;font-size: 22px;&quot;&gt;*&lt;/font&gt;&lt;/div&gt;" style="text;html=1;align=center;verticalAlign=middle;resizable=0;points=[];autosize=1;strokeColor=none;fillColor=none;" vertex="1" parent="1">
          <mxGeometry x="1220" y="865" width="30" height="40" as="geometry" />
        </mxCell>
        <mxCell id="O44NoMmETUuOMZ_5m_BU-54" value="" style="endArrow=none;html=1;rounded=1;exitX=0.314;exitY=1.014;exitDx=0;exitDy=0;exitPerimeter=0;entryX=0.252;entryY=1.007;entryDx=0;entryDy=0;entryPerimeter=0;curved=0;" edge="1" parent="1" source="7fRdkEZSf6pnXCqNwYZv-41" target="7fRdkEZSf6pnXCqNwYZv-53">
          <mxGeometry width="50" height="50" relative="1" as="geometry">
            <mxPoint x="880" y="810" as="sourcePoint" />
            <mxPoint x="980" y="870" as="targetPoint" />
            <Array as="points">
              <mxPoint x="540" y="870" />
              <mxPoint x="720" y="870" />
              <mxPoint x="890" y="870" />
              <mxPoint x="970" y="870" />
            </Array>
          </mxGeometry>
        </mxCell>
        <mxCell id="O44NoMmETUuOMZ_5m_BU-55" value="&lt;font style=&quot;font-size: 16px;&quot;&gt;1&lt;/font&gt;&lt;div style=&quot;font-size: 16px;&quot;&gt;&lt;br&gt;&lt;/div&gt;" style="text;html=1;align=center;verticalAlign=middle;resizable=0;points=[];autosize=1;strokeColor=none;fillColor=none;" vertex="1" parent="1">
          <mxGeometry x="827" y="825" width="30" height="50" as="geometry" />
        </mxCell>
        <mxCell id="O44NoMmETUuOMZ_5m_BU-56" value="&lt;font style=&quot;font-size: 16px;&quot;&gt;1&lt;/font&gt;&lt;div style=&quot;font-size: 16px;&quot;&gt;&lt;br&gt;&lt;/div&gt;" style="text;html=1;align=center;verticalAlign=middle;resizable=0;points=[];autosize=1;strokeColor=none;fillColor=none;" vertex="1" parent="1">
          <mxGeometry x="670" y="245" width="30" height="50" as="geometry" />
        </mxCell>
        <mxCell id="O44NoMmETUuOMZ_5m_BU-57" value="&lt;font style=&quot;font-size: 16px;&quot;&gt;1&lt;/font&gt;&lt;div style=&quot;font-size: 16px;&quot;&gt;&lt;br&gt;&lt;/div&gt;" style="text;html=1;align=center;verticalAlign=middle;resizable=0;points=[];autosize=1;strokeColor=none;fillColor=none;" vertex="1" parent="1">
          <mxGeometry x="635" y="245" width="30" height="50" as="geometry" />
        </mxCell>
        <mxCell id="O44NoMmETUuOMZ_5m_BU-58" value="&lt;font style=&quot;font-size: 16px;&quot;&gt;1&lt;/font&gt;&lt;div style=&quot;font-size: 16px;&quot;&gt;&lt;br&gt;&lt;/div&gt;" style="text;html=1;align=center;verticalAlign=middle;resizable=0;points=[];autosize=1;strokeColor=none;fillColor=none;" vertex="1" parent="1">
          <mxGeometry x="565" y="250" width="30" height="50" as="geometry" />
        </mxCell>
        <mxCell id="O44NoMmETUuOMZ_5m_BU-59" value="&lt;font style=&quot;font-size: 16px;&quot;&gt;1&lt;/font&gt;&lt;div style=&quot;font-size: 16px;&quot;&gt;&lt;br&gt;&lt;/div&gt;" style="text;html=1;align=center;verticalAlign=middle;resizable=0;points=[];autosize=1;strokeColor=none;fillColor=none;" vertex="1" parent="1">
          <mxGeometry x="725" y="185" width="30" height="50" as="geometry" />
        </mxCell>
        <mxCell id="O44NoMmETUuOMZ_5m_BU-60" value="&lt;font style=&quot;font-size: 16px;&quot;&gt;1&lt;/font&gt;&lt;div style=&quot;font-size: 16px;&quot;&gt;&lt;br&gt;&lt;/div&gt;" style="text;html=1;align=center;verticalAlign=middle;resizable=0;points=[];autosize=1;strokeColor=none;fillColor=none;" vertex="1" parent="1">
          <mxGeometry x="515" y="153" width="30" height="50" as="geometry" />
        </mxCell>
        <mxCell id="O44NoMmETUuOMZ_5m_BU-61" value="&lt;font style=&quot;font-size: 16px;&quot;&gt;1&lt;/font&gt;&lt;div style=&quot;font-size: 16px;&quot;&gt;&lt;br&gt;&lt;/div&gt;" style="text;html=1;align=center;verticalAlign=middle;resizable=0;points=[];autosize=1;strokeColor=none;fillColor=none;" vertex="1" parent="1">
          <mxGeometry x="440" y="153" width="30" height="50" as="geometry" />
        </mxCell>
        <mxCell id="O44NoMmETUuOMZ_5m_BU-62" value="&lt;font style=&quot;font-size: 16px;&quot;&gt;1&lt;/font&gt;&lt;div style=&quot;font-size: 16px;&quot;&gt;&lt;br&gt;&lt;/div&gt;" style="text;html=1;align=center;verticalAlign=middle;resizable=0;points=[];autosize=1;strokeColor=none;fillColor=none;" vertex="1" parent="1">
          <mxGeometry x="365" y="85" width="30" height="50" as="geometry" />
        </mxCell>
        <mxCell id="O44NoMmETUuOMZ_5m_BU-63" value="&lt;font style=&quot;font-size: 16px;&quot;&gt;1&lt;/font&gt;&lt;div style=&quot;font-size: 16px;&quot;&gt;&lt;br&gt;&lt;/div&gt;" style="text;html=1;align=center;verticalAlign=middle;resizable=0;points=[];autosize=1;strokeColor=none;fillColor=none;" vertex="1" parent="1">
          <mxGeometry x="330" y="85" width="30" height="50" as="geometry" />
        </mxCell>
        <mxCell id="O44NoMmETUuOMZ_5m_BU-64" value="&lt;font style=&quot;font-size: 16px;&quot;&gt;1&lt;/font&gt;&lt;div style=&quot;font-size: 16px;&quot;&gt;&lt;br&gt;&lt;/div&gt;" style="text;html=1;align=center;verticalAlign=middle;resizable=0;points=[];autosize=1;strokeColor=none;fillColor=none;" vertex="1" parent="1">
          <mxGeometry x="235" y="110" width="30" height="50" as="geometry" />
        </mxCell>
        <mxCell id="O44NoMmETUuOMZ_5m_BU-65" value="&lt;font style=&quot;font-size: 16px;&quot;&gt;1&lt;/font&gt;&lt;div style=&quot;font-size: 16px;&quot;&gt;&lt;br&gt;&lt;/div&gt;" style="text;html=1;align=center;verticalAlign=middle;resizable=0;points=[];autosize=1;strokeColor=none;fillColor=none;" vertex="1" parent="1">
          <mxGeometry x="235" y="153" width="30" height="50" as="geometry" />
        </mxCell>
        <mxCell id="O44NoMmETUuOMZ_5m_BU-66" value="&lt;font style=&quot;font-size: 16px;&quot;&gt;1&lt;/font&gt;&lt;div style=&quot;font-size: 16px;&quot;&gt;&lt;br&gt;&lt;/div&gt;" style="text;html=1;align=center;verticalAlign=middle;resizable=0;points=[];autosize=1;strokeColor=none;fillColor=none;" vertex="1" parent="1">
          <mxGeometry x="240" y="220" width="30" height="50" as="geometry" />
        </mxCell>
        <mxCell id="O44NoMmETUuOMZ_5m_BU-67" value="&lt;font style=&quot;font-size: 16px;&quot;&gt;1&lt;/font&gt;&lt;div style=&quot;font-size: 16px;&quot;&gt;&lt;br&gt;&lt;/div&gt;" style="text;html=1;align=center;verticalAlign=middle;resizable=0;points=[];autosize=1;strokeColor=none;fillColor=none;" vertex="1" parent="1">
          <mxGeometry x="345" y="310" width="30" height="50" as="geometry" />
        </mxCell>
        <mxCell id="O44NoMmETUuOMZ_5m_BU-68" value="&lt;font style=&quot;font-size: 16px;&quot;&gt;1&lt;/font&gt;&lt;div style=&quot;font-size: 16px;&quot;&gt;&lt;br&gt;&lt;/div&gt;" style="text;html=1;align=center;verticalAlign=middle;resizable=0;points=[];autosize=1;strokeColor=none;fillColor=none;" vertex="1" parent="1">
          <mxGeometry x="240" y="945" width="30" height="50" as="geometry" />
        </mxCell>
        <mxCell id="O44NoMmETUuOMZ_5m_BU-69" value="&lt;font style=&quot;font-size: 30px;&quot;&gt;DisasterGuard: Real-Time Natural Disaster Prediction&lt;br&gt;and Safety Advisory App&lt;/font&gt;" style="text;html=1;align=center;verticalAlign=middle;whiteSpace=wrap;rounded=0;" vertex="1" parent="1">
          <mxGeometry x="390" y="-30" width="740" height="30" as="geometry" />
        </mxCell>
      </root>
    </mxGraphModel>
  </diagram>
</mxfile>
